<?xml version="1.0" encoding="utf-8"?>
<!-- Generator: Adobe Illustrator 21.1.0, SVG Export Plug-In . SVG Version: 6.00 Build 0)  -->
<svg version="1.1" id="Laag_1" xmlns="http://www.w3.org/2000/svg" xmlns:xlink="http://www.w3.org/1999/xlink" x="0px" y="0px"
	 viewBox="0 0 1133.9 566.9" style="enable-background:new 0 0 1133.9 566.9;" xml:space="preserve">
<style type="text/css">
	.st0{fill:url(#SVGID_1_);}
	.st1{fill:none;stroke:#000000;stroke-width:5;stroke-miterlimit:10;}
	.st2{opacity:0.71;}
	.st3{fill:#DB8071;}
	.st4{opacity:0.79;}
	.st5{fill:url(#SVGID_2_);}
	.st6{fill:url(#SVGID_3_);}
	.st7{fill:url(#SVGID_4_);}
	.st8{fill:url(#SVGID_5_);}
	.st9{fill:url(#SVGID_6_);}
	.st10{fill:url(#SVGID_7_);}
	.st11{fill:url(#SVGID_8_);}
	.st12{fill:url(#SVGID_9_);}
	.st13{fill:url(#SVGID_10_);}
	.st14{fill:url(#SVGID_11_);}
	.st15{fill:url(#SVGID_12_);}
	.st16{fill:url(#SVGID_13_);}
	.st17{fill:url(#SVGID_14_);}
	.st18{fill:url(#SVGID_15_);}
	.st19{fill:url(#SVGID_16_);}
	.st20{fill:url(#SVGID_17_);}
	.st21{fill:url(#SVGID_18_);}
</style>
<linearGradient id="SVGID_1_" gradientUnits="userSpaceOnUse" x1="132.8398" y1="103.78" x2="132.8398" y2="270.3092">
	<stop  offset="0" style="stop-color:#E4CD21"/>
	<stop  offset="0.6558" style="stop-color:#E7A263"/>
	<stop  offset="1" style="stop-color:#E78870"/>
</linearGradient>
<path class="st0" d="M29.7,133.3c0,0,19.3,42.1,13.4,137c0,0,27.6-10.8,48.6-7.7c0,0,38.9-34.3,43.1-50.8c0,0,9.7,31.1,15.4,31.8
	c0,0,13.8-11.1,44-1.3c0,0-15.9-56.9,41.9-123.8c0,0-43-8.5-49.8-14.9c0,0,11,47.8-30.1,87.3c0,0-10.8-46.6-7.2-85.9l-29.9,0.3
	c0,0,28.7,62.9-35.9,115.7c0,0-16.2-65.6,7.1-113.8C90.2,107.4,65.6,106.3,29.7,133.3z"/>
<path class="st1" d="M223.5,192.5c0,0,137.3,18.5,152.9,28.7"/>
<polygon points="222.7,182.7 212.7,181 210,195.4 217.1,199.1 "/>
<polygon points="465.9,227.6 476.3,231 471.9,243.3 461.4,241.8 "/>
<path d="M324.5,213.8c0,0-67.8,15.9-85,41.4c-11.1,14.5,2.8,23.6,18.3,9.4s30.8-33.6,47.3-38.9c16.5-5.3,18.5-5.6,18.5-5.6
	L324.5,213.8z"/>
<path class="st1" d="M458.5,231.4c0,0-109.7-26.7-139.2-12.8"/>
<path d="M357.4,217.6c0,0,39.7,7.8,57.2,49.7S440,300,441.6,291c1.6-9-6.5-29-24.3-45.4s-34-25.8-41.6-26.7
	C368.1,217.9,357.4,217.6,357.4,217.6z"/>
<g class="st2">
	<circle class="st3" cx="408.2" cy="227.7" r="54.5"/>
</g>
<g class="st4">
	<circle class="st3" cx="276.7" cy="199.6" r="55.5"/>
</g>
<g>
	<path d="M275.5,145.7c29.4,0,53.4,23.9,53.4,53.4s-23.9,53.4-53.4,53.4s-53.4-23.9-53.4-53.4S246.1,145.7,275.5,145.7 M275.5,140.7
		c-32.2,0-58.4,26.1-58.4,58.4s26.1,58.4,58.4,58.4s58.4-26.1,58.4-58.4S307.8,140.7,275.5,140.7L275.5,140.7z"/>
</g>
<g>
	<path d="M407.2,171.3c30.5,0,55.4,24.8,55.4,55.4s-24.8,55.4-55.4,55.4s-55.4-24.8-55.4-55.4S376.6,171.3,407.2,171.3 M407.2,168.3
		c-32.2,0-58.4,26.1-58.4,58.4s26.1,58.4,58.4,58.4s58.4-26.1,58.4-58.4S439.4,168.3,407.2,168.3L407.2,168.3z"/>
</g>
<linearGradient id="SVGID_2_" gradientUnits="userSpaceOnUse" x1="465.5589" y1="177.0281" x2="574.5151" y2="285.9843">
	<stop  offset="0" style="stop-color:#E4CD21"/>
	<stop  offset="0.6558" style="stop-color:#E7A263"/>
	<stop  offset="1" style="stop-color:#E78870"/>
</linearGradient>
<path class="st5" d="M564.1,227c-6.6-8.9-19.2-36.5,5.9-62.3l-81.9-10.3c0,0,33.6,75.4-20.8,141.2c0,0,24.4,1.7,40.4,9.2
	c7.1,2.9,42.9,7.9,59-11.3C582.8,274.3,570.8,235.9,564.1,227z M529.2,269.9c-17.5,7.9-5.4-25.9-4.5-35.4s-6.9-28.9-2.2-33
	c20-12,12.3,24.5,12.3,24.5s-0.6,5-2.2,10.4C530.8,242.3,546.8,262,529.2,269.9z"/>
<linearGradient id="SVGID_3_" gradientUnits="userSpaceOnUse" x1="591.1345" y1="202.1818" x2="673.6791" y2="284.7264">
	<stop  offset="0" style="stop-color:#E4CD21"/>
	<stop  offset="0.6558" style="stop-color:#E7A263"/>
	<stop  offset="1" style="stop-color:#E78870"/>
</linearGradient>
<path class="st6" d="M583.8,243.3c0,0,10.7,24.8-2.7,44.2c0,0,33.1,28.2,72,14.8c0,0,42.4-17.8-3.6-63.4c-46-45.6,0.2-65.4,4.7-50.4
	c0,0-22.5,5.1-10.2,24.3s41.1-2,28.2-22.7c-12.9-20.7-38-35.3-61.7-7c-16.6,21.5,8.1,34.6,11.2,38.4
	C626.6,227.7,640.9,275.7,583.8,243.3z"/>
<linearGradient id="SVGID_4_" gradientUnits="userSpaceOnUse" x1="689.5881" y1="168.5978" x2="782.0169" y2="261.0265">
	<stop  offset="0" style="stop-color:#E4CD21"/>
	<stop  offset="0.6558" style="stop-color:#E7A263"/>
	<stop  offset="1" style="stop-color:#E78870"/>
</linearGradient>
<path class="st7" d="M686.7,171.5c0,0,94.7-0.8,102.4-3c0,0,2.4,38.8-4.2,56.9l-3.9-0.1c0,0-10.2-53.2-33.1-18.9
	c-7.3,13.7,0.4,68.6,11.5,77.3c0,0-43.1,1.3-48.4,5.7c0,0,28.3-44.6,15.9-86.4c-8.5-20.8-28.5-6.3-29.2,20.1l-6.8,1.1
	C690.9,224.3,688.6,178.1,686.7,171.5z"/>
<linearGradient id="SVGID_5_" gradientUnits="userSpaceOnUse" x1="806.97" y1="182.2182" x2="884.849" y2="260.0972">
	<stop  offset="0" style="stop-color:#E4CD21"/>
	<stop  offset="0.6558" style="stop-color:#E7A263"/>
	<stop  offset="1" style="stop-color:#E78870"/>
</linearGradient>
<path class="st8" d="M883.7,171.1c0,0-19.6,1.9-29.5-0.1c-9.9-2-41.7-13.6-48,21.9c-1.5,12.3,3.6,16.3-1.3,25.9s-11.3,49.6,10,56.5
	c21.2,6.9,45.3,1.1,45.3,1.1s33.3-3.9,17.2-39.3C861.3,201.6,869.9,187.2,883.7,171.1z M848.8,204.3c-1.2,2.8-5.5,14.8-3.8,18.8
	c1.8,4,6.8,27.2-3.2,29.6c-9.9,2.4-6.6-10.6-6.6-10.6c0-5,8.9-3,2.8-23s5-21.7,5-21.7C846.7,197.2,850.1,201.5,848.8,204.3z"/>
<linearGradient id="SVGID_6_" gradientUnits="userSpaceOnUse" x1="903.121" y1="191.3295" x2="971.1608" y2="259.3693">
	<stop  offset="0" style="stop-color:#E4CD21"/>
	<stop  offset="0.6558" style="stop-color:#E7A263"/>
	<stop  offset="1" style="stop-color:#E78870"/>
</linearGradient>
<path class="st9" d="M962.8,230l15.4,3c0,0-8.3,52.8-45.3,43.6c-37-9.1-34.9-27.5-34.9-27.5s1.1-49,2.1-51.7
	c1-2.6,6.4-11.6,11.6-13.2c5.2-1.6,27-13.4,38.8-10.2c11.8,3.2,34,22.1,13,42.8c-20.9,20.7-46.5-6.6-30.6-17.4
	c6-3.8,9.4-5.4,13.3-5.1c3.9,0.3,5.3-10.7-5.4-7.3s-26,14.5-26.4,31.6s11.7,31.1,27.2,29C957.1,245.5,962.8,230,962.8,230z"/>
<linearGradient id="SVGID_7_" gradientUnits="userSpaceOnUse" x1="990.0244" y1="175.4199" x2="1106.6349" y2="292.0305">
	<stop  offset="0" style="stop-color:#E4CD21"/>
	<stop  offset="0.6558" style="stop-color:#E7A263"/>
	<stop  offset="1" style="stop-color:#E78870"/>
</linearGradient>
<path class="st10" d="M990.9,174.5c0,0,5.4,110.1-16.2,112.4c0,0,42.3,6.1,45.7,7.7c0,0-8-43.8-1.4-51.2c0,0,28.4,39.1,24.4,58.1
	c0,0,50.4-1.5,54.2-0.6c0,0-53.1-74.7-55.1-79.8c0,0,32.9-62.8,52.5-67.5c0,0-56.5,27.8-70.3,51.5c0,0-0.5-34.5,3.1-36.8
	C1027.9,168.4,995.1,175.4,990.9,174.5z"/>
<linearGradient id="SVGID_8_" gradientUnits="userSpaceOnUse" x1="45.2349" y1="397.5911" x2="185.9975" y2="316.3217">
	<stop  offset="0" style="stop-color:#E4CD21"/>
	<stop  offset="0.6558" style="stop-color:#E7A263"/>
	<stop  offset="1" style="stop-color:#E78870"/>
</linearGradient>
<path class="st11" d="M167.1,283.6c0,0-69.2,1.2-120.9,39.8c0,0,31.6,13.3,22.4,114.8c0,0,21.9-7.9,42.9-3.8
	c0,0-24.3-49.5-20.7-61.5c0,0-0.9-18.5,11-10.4s11.8,18.9,11.8,18.9l-2-51.2c0,0-14.2,24-19.9,8s19.1-21.5,27.7-21.4
	s32.4,6.1,35.9,42.3C155.3,359,156,305.5,167.1,283.6z"/>
<linearGradient id="SVGID_9_" gradientUnits="userSpaceOnUse" x1="139.9968" y1="402.7875" x2="297.8438" y2="311.6545">
	<stop  offset="0" style="stop-color:#E4CD21"/>
	<stop  offset="0.6558" style="stop-color:#E7A263"/>
	<stop  offset="1" style="stop-color:#E78870"/>
</linearGradient>
<path class="st12" d="M167.1,283.6c0,0,31.2,23.5,13.5,77.5s-23.9,70.6-23.9,70.6s29.2-18.9,49.4-7.2s50.3,15.6,54,12.5l9.6-63.1
	c0,0-24,48.5-51.2,26.2s-11-39.7-2.2-32c8.9,7.8,13.7,16.5,13.7,16.5s4.8-45.6,8.7-51.4c0,0-27.1,32.1-33.6,11.2
	c-6.6-20.9,27.6-45.6,37-37.9c0,0,34.8,11.1,35.8,48.5c0,0-2.9-50.9,9.9-60.8C287.8,294.2,197.7,272.6,167.1,283.6z"/>
<linearGradient id="SVGID_10_" gradientUnits="userSpaceOnUse" x1="280.8019" y1="411.1736" x2="392.686" y2="346.5773">
	<stop  offset="0" style="stop-color:#E4CD21"/>
	<stop  offset="0.6558" style="stop-color:#E7A263"/>
	<stop  offset="1" style="stop-color:#E78870"/>
</linearGradient>
<path class="st13" d="M290.5,371l-4.5,49.1c0,0,20,28.9,54,26c33.9-2.9,48.7-18.9,41.6-42.8s-19.4-31.9-39.2-45.2
	c-19.8-13.3-15.1-42.5,9.7-35c0,0-27.6,13.1-0.9,31.2c16.5,10.5,42.1-13,27.1-32.6c-15.1-19.6-29.9-23.9-57.3-11.3
	c-27.4,12.6-31,36.8-6,49.7c25,12.9,6.5,37.9-3.4,31.7C311.4,391.9,290.9,385.1,290.5,371z"/>
<linearGradient id="SVGID_11_" gradientUnits="userSpaceOnUse" x1="393.2431" y1="404.9648" x2="504.0341" y2="340.9996">
	<stop  offset="0" style="stop-color:#E4CD21"/>
	<stop  offset="0.6558" style="stop-color:#E7A263"/>
	<stop  offset="1" style="stop-color:#E78870"/>
</linearGradient>
<path class="st14" d="M392.2,372.4c0,0,15.2-39.8,6.9-53.8c0,0,72.2,27.7,103.7,20.2c0,0-11.4,45.8-9.6,50.9l-8.3-1.6
	c0,0,7.9-33-21.4-33.8c0,0-21,75-0.6,93.4c0,0-34.8-2.6-44.5,1c0,0,24.6-8.8,19.1-97.4c0,0-16.7-9.3-33.6,22.9L392.2,372.4z"/>
<linearGradient id="SVGID_12_" gradientUnits="userSpaceOnUse" x1="491.8571" y1="416.4431" x2="574.0738" y2="368.9753">
	<stop  offset="0" style="stop-color:#E4CD21"/>
	<stop  offset="0.6558" style="stop-color:#E7A263"/>
	<stop  offset="1" style="stop-color:#E78870"/>
</linearGradient>
<path class="st15" d="M514.9,340.5l44.5,3c0,0-31.9,44-24.6,72.7c7.3,28.6,10.6,32.2,10.6,32.2l-37.6-4.5c0,0,9.8-24.9,11.9-44.6
	C521.7,379.5,517.3,345.7,514.9,340.5z"/>
<linearGradient id="SVGID_13_" gradientUnits="userSpaceOnUse" x1="567.7186" y1="421.1656" x2="709.9377" y2="339.0554">
	<stop  offset="0" style="stop-color:#E4CD21"/>
	<stop  offset="0.6558" style="stop-color:#E7A263"/>
	<stop  offset="1" style="stop-color:#E78870"/>
</linearGradient>
<path class="st16" d="M571.9,345.8c0,0-2.2,16.5,5.8,50.9s8.9,46.1,7,53.9l43.3,8.7c0,0,66.2-116.4,81.8-120.4
	c0,0-37.1-1.9-38.5-2.2c0,0,2.7,57.5-44.6,87.9c0,0-29.5-64.7,7.1-83C633.7,341.4,575.9,347.7,571.9,345.8z"/>
<linearGradient id="SVGID_14_" gradientUnits="userSpaceOnUse" x1="776.3758" y1="432.0974" x2="892.6135" y2="364.9875">
	<stop  offset="0" style="stop-color:#E4CD21"/>
	<stop  offset="0.6558" style="stop-color:#E7A263"/>
	<stop  offset="1" style="stop-color:#E78870"/>
</linearGradient>
<path class="st17" d="M801.3,321.2c0,0,16,110.1-5.2,145.1c0,0,21.2-7.5,45.5-2.3c24.3,5.1,48.4-0.9,53.2-3.3c0,0,7.7-20.5,3-54.6
	c0,0-7.1,53.3-50.8,35.6c-43.6-17.7,7.2-128.3,14.1-131.3C861.2,310.5,814.9,308.5,801.3,321.2z"/>
<linearGradient id="SVGID_15_" gradientUnits="userSpaceOnUse" x1="909.6635" y1="434.4355" x2="1010.9914" y2="375.9338">
	<stop  offset="0" style="stop-color:#E4CD21"/>
	<stop  offset="0.6558" style="stop-color:#E7A263"/>
	<stop  offset="1" style="stop-color:#E78870"/>
</linearGradient>
<path class="st18" d="M987.3,433.4c0,0-6.6,17-1.5,25.3c0,0-47.9-8.1-62.1,0.1c0,0,9.5-18.9,3.7-27.1c0,0,12.9-2.2,30.5-18.9
	c17.5-16.7,22.9-36.8,22-42.6c-1-5.7-8.5-16.2-15.8-10.6c-7.3,5.5-0.6,6.3,0.3,8c0.9,1.6,7,9.6-9.4,13.2c-16.4,3.6-27-4.4-23.7-11.3
	c0,0,2.5-21.9,14.3-22.7c11.8-0.9,35.7-0.3,41.1,0.2c5.5,0.5,17.8,8,13.9,21.3s-25.6,50-46.2,62.6
	C954.3,430.7,971.6,434.9,987.3,433.4z"/>
<linearGradient id="SVGID_16_" gradientUnits="userSpaceOnUse" x1="995.1144" y1="453.563" x2="1015.1479" y2="441.9967">
	<stop  offset="0" style="stop-color:#E4CD21"/>
	<stop  offset="0.6558" style="stop-color:#E7A263"/>
	<stop  offset="1" style="stop-color:#E78870"/>
</linearGradient>
<path class="st19" d="M1001.5,433.5c0,0-13.6,13.1-3,25.2c10.5,12.1,18.5-6.2,17.6-9.9s-2.8-15.3-8.7-15.3
	C1001.5,433.5,1005.7,431.6,1001.5,433.5z"/>
<linearGradient id="SVGID_17_" gradientUnits="userSpaceOnUse" x1="1021.0414" y1="434.5018" x2="1103.5441" y2="386.8689">
	<stop  offset="0" style="stop-color:#E4CD21"/>
	<stop  offset="0.6558" style="stop-color:#E7A263"/>
	<stop  offset="1" style="stop-color:#E78870"/>
</linearGradient>
<path class="st20" d="M1089,418.9c-10.5-15.8-8.4-29.4,5.2-48.1c0,0-46.4-17.3-54.2-12.8c0,0-0.3,23.1-5.7,30.4
	c-5.5,7.3-12.7,58.9,0.8,68.8c13.5,9.9,50.7,12.6,57.7-0.2C1099.8,444.2,1099.5,434.7,1089,418.9z M1067.7,397.6
	c-4.3,2.5-4.4,12-5.1,16.9c-0.7,4.9,11.6,16.7,1.2,23.3s-11.6-3.2-11-7.1c0.6-3.9,1.1-9,4.3-26.5c3.3-17.5,4.6-13.1,4.6-13.1
	C1064.5,389.5,1072,395,1067.7,397.6z"/>
<g class="st4">
	<path d="M407.5,174.2c29.4,0,53.4,23.9,53.4,53.4S436.9,281,407.5,281c-29.4,0-53.4-23.9-53.4-53.4S378.1,174.2,407.5,174.2
		 M407.5,169.2c-32.2,0-58.4,26.1-58.4,58.4s26.1,58.4,58.4,58.4s58.4-26.1,58.4-58.4S439.7,169.2,407.5,169.2L407.5,169.2z"/>
</g>
<linearGradient id="SVGID_18_" gradientUnits="userSpaceOnUse" x1="672.0335" y1="452.7211" x2="812.9539" y2="371.3607">
	<stop  offset="0" style="stop-color:#E4CD21"/>
	<stop  offset="0.6558" style="stop-color:#E7A263"/>
	<stop  offset="1" style="stop-color:#E78870"/>
</linearGradient>
<path class="st21" d="M787.2,326.8c0,0-38,15.9-60.2,8.8c0,0,3.1,34.5-13.4,53.1c0,0-16.2-15.9-29,6.2c0,0-6.4,11.3,5.2,22.6
	c0,0-24.7,61.5-1.7,47.5c10.9-7.1,35.7-44.5,35.7-44.5s10.2,6.5,11.4,10.1c0,0-0.9,28.3-7.6,41.3c0,0,42.4-3.4,59.2-0.1
	C786.7,471.9,752.4,378,787.2,326.8z M698.4,406.9c-7.7-4-4.5-9.6-4.5-9.6c5-9,13.9,1.8,13.9,1.8C702.8,407,698.4,406.9,698.4,406.9
	z M741.2,414.6c0,0-10.1-2.5-12.9-7.9c0,0,20.8-27.1,26-28.4C754.2,378.2,737,399.3,741.2,414.6z"/>
</svg>
